<svg width="152" height="118" viewBox="0 0 152 118" fill="none" xmlns="http://www.w3.org/2000/svg">
<g id="Oso 1" clip-path="url(#clip0_57_93)">
<g id="Oso">
<g id="Oreja Izquierda">
<path id="Vector" d="M13.4568 14.2108C13.4568 6.50378 20.6013 0.253784 29.4177 0.253784C38.2341 0.253784 45.3786 6.50378 45.3786 14.2108C45.3786 21.9178 38.2341 28.1678 29.4177 28.1678C20.6013 28.1678 13.4568 21.9178 13.4568 14.2108Z" fill="#996443" stroke="#996443" stroke-width="0.462456" stroke-miterlimit="10" stroke-linecap="round" stroke-linejoin="round"/>
<path id="Vector_2" d="M21.9138 14.2108C21.9138 10.5819 25.2732 7.6366 29.4177 7.6366C33.5622 7.6366 36.9216 10.5819 36.9216 14.2108C36.9216 17.8436 33.5622 20.785 29.4177 20.785C25.2732 20.785 21.9138 17.8436 21.9138 14.2108Z" fill="#EF999A" stroke="#EF999A" stroke-width="0.462456" stroke-miterlimit="10" stroke-linecap="round" stroke-linejoin="round"/>
</g>
<g id="Oreja Derecha">
<path id="Vector_3" d="M112.5 16.0663C112.5 8.65612 119.367 2.65222 127.835 2.65222C136.304 2.65222 143.171 8.65612 143.171 16.0663C143.171 23.4725 136.304 29.4764 127.835 29.4764C119.367 29.4764 112.5 23.4725 112.5 16.0663Z" fill="#996443" stroke="#996443" stroke-width="0.462456" stroke-miterlimit="10" stroke-linecap="round" stroke-linejoin="round"/>
<path id="Vector_4" d="M119.91 16.0663C119.91 11.8475 123.457 8.43347 127.835 8.43347C132.214 8.43347 135.765 11.8475 135.765 16.0663C135.765 20.2811 132.214 23.6952 127.835 23.6952C123.457 23.6952 119.91 20.2811 119.91 16.0663Z" fill="#EF999A" stroke="#EF999A" stroke-width="0.462456" stroke-miterlimit="10" stroke-linecap="round" stroke-linejoin="round"/>
</g>
<g id="Cuerpo">
<path id="Vector_5" d="M4 70H150V80H4V70Z" fill="#BE7D54" stroke="#BE7D54" stroke-width="4.36576" stroke-miterlimit="10" stroke-linecap="round" stroke-linejoin="round"/>
<path id="Vector_6" d="M77.0036 5.32019C36.5075 5.32019 3.67554 33.3866 3.67554 68.0037C3.67554 70.6795 3.89038 73.3123 4.27319 75.8982C4.42554 75.9021 4.60131 75.9217 4.75756 75.9217C6.42553 75.9451 8.05444 76.074 10.199 76.3162C10.7029 76.3748 11.0232 76.4138 12.0466 76.5349C13.3318 76.6912 13.988 76.7654 14.7497 76.8435C18.6365 77.2381 22.07 77.4568 28.7068 77.7928C28.8982 77.8006 29.0544 77.8045 29.4021 77.824C35.1169 78.1092 37.6638 78.2615 40.8474 78.5154C47.3044 79.0349 54.0466 79.3709 62.4215 79.6287C65.5973 79.7263 75.6794 79.9803 76.3747 79.9998C80.8278 80.1092 84.402 80.0584 92.4333 79.8474C95.5465 79.7654 96.9215 79.7302 98.652 79.699C104.214 79.5935 108.664 79.6365 112.894 79.867C113.468 79.2888 114.273 78.9451 115.144 79.0037C116.144 79.074 116.949 79.1443 118.671 79.3045C119.379 79.3709 119.66 79.3943 120.031 79.4295C120.816 79.4998 122.058 79.5974 122.058 79.5974C122.074 79.5974 122.097 79.5896 122.136 79.5857C122.23 79.5701 122.636 79.4724 122.66 79.4685C123.668 79.2185 124.257 79.1326 125.117 79.2224C126.691 79.3904 128.269 79.449 130.367 79.449C130.918 79.449 131.355 79.4451 132.371 79.4373C134.031 79.4217 134.796 79.4177 135.769 79.4295C136.304 79.4373 136.691 79.4763 137.511 79.5779C137.644 79.5974 137.703 79.6092 137.777 79.617C138.355 79.6873 138.66 79.6951 138.882 79.6678C139.367 79.6053 139.765 79.4803 140.644 79.1287C140.781 79.074 140.855 79.0467 140.929 79.0154C142.711 78.3084 143.933 78.031 145.652 78.1795C146.511 78.2537 147.152 78.3787 148.593 78.7224C148.644 78.7342 148.644 78.7342 148.695 78.7498C148.906 78.8006 149.007 78.8162 149.183 78.8552C149.914 75.3279 150.324 71.7107 150.324 68.0037C150.324 33.3866 117.5 5.32019 77.0036 5.32019Z" fill="#BE7D54" stroke="#BE7D54" stroke-width="4.36576" stroke-miterlimit="10" stroke-linecap="round" stroke-linejoin="round"/>
<path id="Vector_7" d="M31.8044 70.367L31.8201 82.3514" stroke="#996443" stroke-width="2.44051" stroke-miterlimit="10" stroke-linejoin="round"/>
<path id="Vector_8" d="M121.859 70.2615L121.875 82.242" stroke="#996443" stroke-width="2.44051" stroke-miterlimit="10" stroke-linejoin="round"/>
</g>
<g id="Boca">
<path id="Vector_9" d="M59.0583 50.4881C59.0583 42.5311 68.324 36.0818 79.7536 36.0818C91.1794 36.0818 100.445 42.5311 100.445 50.4881C100.445 58.4451 91.1794 64.8943 79.7536 64.8943C68.324 64.8943 59.0583 58.4451 59.0583 50.4881Z" fill="#FAE292" stroke="#FAE292" stroke-width="0.462456" stroke-miterlimit="10" stroke-linecap="round" stroke-linejoin="round"/>
<g id="Nariz">
<g id="Vector_10">
<path d="M77.5271 51.1873C77.4763 51.1482 77.3981 51.0076 77.3747 51.0662C77.3435 51.1639 77.7067 51.535 77.7536 51.6092C77.8825 51.8084 77.9607 52.0467 78.0817 52.2537C78.488 52.9451 79.1052 54.5311 78.2302 55.1834C77.1364 56.0037 75.3278 55.2068 74.2849 54.6287C74.0857 54.5154 73.9333 54.2732 73.6989 54.2381C72.5075 54.0545 72.3591 55.4568 72.7224 56.324C73.0544 57.1131 74.2614 58.2303 75.1247 58.4139C75.5114 58.4959 75.9177 58.4412 76.3122 58.5037C76.7028 58.5662 77.3513 58.7498 77.738 58.6248C78.363 58.4139 78.6442 57.8826 79.3864 57.9764C80.2263 58.0818 80.6521 58.8553 81.3552 59.1951C81.738 59.3787 82.2067 59.3435 82.6169 59.3279C83.027 59.3162 83.6872 59.3123 84.0583 59.0896C84.5349 58.8006 84.9762 58.0115 85.1247 57.4959C85.1755 57.3123 85.3356 57.0154 85.2888 56.8201C85.0661 55.8748 84.277 55.4842 83.3825 55.7381C83.1013 55.8201 83.2458 55.8475 83.0075 55.949C82.7614 56.0545 82.4958 56.0115 82.2419 56.0232C81.8942 56.0428 81.4684 56.2811 81.1599 56.0232C80.8083 55.7303 80.9216 55.1131 81.0271 54.7342C81.1052 54.4295 81.1716 54.0896 81.2966 53.8006C81.5192 53.2889 81.8825 52.7928 81.8825 52.2068" fill="black"/>
<path d="M77.5271 51.1873C77.4763 51.1482 77.3981 51.0076 77.3747 51.0662C77.3435 51.1639 77.7067 51.535 77.7536 51.6092C77.8825 51.8084 77.9607 52.0467 78.0817 52.2537C78.488 52.9451 79.1052 54.5311 78.2302 55.1834C77.1364 56.0037 75.3278 55.2068 74.2849 54.6287C74.0857 54.5154 73.9333 54.2732 73.6989 54.2381C72.5075 54.0545 72.3591 55.4568 72.7224 56.324C73.0544 57.1131 74.2614 58.2303 75.1247 58.4139C75.5114 58.4959 75.9177 58.4412 76.3122 58.5037C76.7028 58.5662 77.3513 58.7498 77.738 58.6248C78.363 58.4139 78.6442 57.8826 79.3864 57.9764C80.2263 58.0818 80.6521 58.8553 81.3552 59.1951C81.738 59.3787 82.2067 59.3435 82.6169 59.3279C83.027 59.3162 83.6872 59.3123 84.0583 59.0896C84.5349 58.8006 84.9762 58.0115 85.1247 57.4959C85.1755 57.3123 85.3356 57.0154 85.2888 56.8201C85.0661 55.8748 84.277 55.4842 83.3825 55.7381C83.1013 55.8201 83.2458 55.8475 83.0075 55.949C82.7614 56.0545 82.4958 56.0115 82.2419 56.0232C81.8942 56.0428 81.4684 56.2811 81.1599 56.0232C80.8083 55.7303 80.9216 55.1131 81.0271 54.7342C81.1052 54.4295 81.1716 54.0896 81.2966 53.8006C81.5192 53.2889 81.8825 52.7928 81.8825 52.2068" stroke="black" stroke-width="0.462456" stroke-miterlimit="10" stroke-linecap="round" stroke-linejoin="round"/>
</g>
<g id="Vector_11">
<path d="M81.1871 55.9256C81.2613 56.0193 81.3863 56.0467 81.4957 56.0623C81.527 56.0662 81.5621 56.074 81.5934 56.0701C81.6129 56.0701 81.6754 56.0584 81.6559 56.0662C81.5738 56.0935 81.2379 56.0779 81.1949 55.992C81.1598 55.9099 81.0817 55.8592 81.0504 55.7732C81.0387 55.7381 81.0387 55.6248 81.0348 55.6638C80.9957 55.9295 81.4645 56.035 81.6402 56.0154C81.9293 55.9842 82.2496 55.9764 82.5309 55.9099C82.9566 55.8162 83.4215 55.656 83.8668 55.7185" fill="black"/>
<path d="M81.1871 55.9256C81.2613 56.0193 81.3863 56.0467 81.4957 56.0623C81.527 56.0662 81.5621 56.074 81.5934 56.0701C81.6129 56.0701 81.6754 56.0584 81.6559 56.0662C81.5738 56.0935 81.2379 56.0779 81.1949 55.992C81.1598 55.9099 81.0817 55.8592 81.0504 55.7732C81.0387 55.7381 81.0387 55.6248 81.0348 55.6638C80.9957 55.9295 81.4645 56.035 81.6402 56.0154C81.9293 55.9842 82.2496 55.9764 82.5309 55.9099C82.9566 55.8162 83.4215 55.656 83.8668 55.7185" stroke="black" stroke-width="0.462456" stroke-miterlimit="10" stroke-linecap="round" stroke-linejoin="round"/>
</g>
<g id="Vector_12">
<path d="M77.605 58.5115C77.6011 58.4959 77.7808 58.4959 77.8082 58.492C77.941 58.4725 78.0582 58.4295 78.191 58.4295C78.4019 58.4256 78.566 58.3084 78.7769 58.2733C79.1793 58.2108 79.6441 58.2342 80.0308 58.3748C80.3629 58.4998 80.6363 58.7342 80.9566 58.867C80.98 58.8748 81.191 58.9881 81.2027 58.9725C81.2105 58.9647 81.1793 58.9373 81.1793 58.9334C81.0386 58.7381 80.8902 58.6053 80.7222 58.4295C80.191 57.8748 79.0503 57.7342 78.3902 58.078C78.3355 58.1053 78.3042 58.1444 78.2652 58.1834C77.9058 58.4881 78.5386 58.3162 78.7144 58.2811C78.8472 58.2537 79.3746 58.1795 78.9605 58.2186C78.9253 58.2225 78.8941 58.2264 78.859 58.2264C78.816 58.2303 78.7769 58.2342 78.734 58.242C78.6168 58.2537 78.5035 58.2694 78.3863 58.2733" fill="black"/>
<path d="M77.605 58.5115C77.6011 58.4959 77.7808 58.4959 77.8082 58.492C77.941 58.4725 78.0582 58.4295 78.191 58.4295C78.4019 58.4256 78.566 58.3084 78.7769 58.2733C79.1793 58.2108 79.6441 58.2342 80.0308 58.3748C80.3629 58.4998 80.6363 58.7342 80.9566 58.867C80.98 58.8748 81.191 58.9881 81.2027 58.9725C81.2105 58.9647 81.1793 58.9373 81.1793 58.9334C81.0386 58.7381 80.8902 58.6053 80.7222 58.4295C80.191 57.8748 79.0503 57.7342 78.3902 58.078C78.3355 58.1053 78.3042 58.1444 78.2652 58.1834C77.9058 58.4881 78.5386 58.3162 78.7144 58.2811C78.8472 58.2537 79.3746 58.1795 78.9605 58.2186C78.9253 58.2225 78.8941 58.2264 78.859 58.2264C78.816 58.2303 78.7769 58.2342 78.734 58.242C78.6168 58.2537 78.5035 58.2694 78.3863 58.2733" stroke="black" stroke-width="0.462456" stroke-miterlimit="10" stroke-linecap="round" stroke-linejoin="round"/>
</g>
<g id="Vector_13">
<path d="M76.8552 44.1209C77.0505 44.3162 77.4529 44.4725 77.7263 44.5779C77.9568 44.6678 78.1677 44.824 78.4099 44.9022C79.2146 45.1522 80.1404 45.199 80.9568 44.9959C81.281 44.9139 81.5935 44.7615 81.9177 44.6834C82.0622 44.6522 82.2458 44.6287 82.3865 44.5623C82.824 44.3631 83.3201 43.9764 83.8201 43.9764" fill="black"/>
<path d="M76.8552 44.1209C77.0505 44.3162 77.4529 44.4725 77.7263 44.5779C77.9568 44.6678 78.1677 44.824 78.4099 44.9022C79.2146 45.1522 80.1404 45.199 80.9568 44.9959C81.281 44.9139 81.5935 44.7615 81.9177 44.6834C82.0622 44.6522 82.2458 44.6287 82.3865 44.5623C82.824 44.3631 83.3201 43.9764 83.8201 43.9764" stroke="black" stroke-width="0.462456" stroke-miterlimit="10" stroke-linecap="round" stroke-linejoin="round"/>
</g>
<g id="Vector_14">
<path d="M76.6951 44.3826C76.8044 44.3826 76.9099 44.3983 77.0193 44.3905C77.1248 44.3826 77.1365 44.3787 77.1365 44.3826C77.1365 44.3983 77.2459 44.41 77.2459 44.4061C77.2459 44.3944 76.9529 44.2811 76.9685 44.2654C76.9919 44.2264 77.1951 44.2615 77.2302 44.2654C77.2341 44.2654 77.3084 44.2772 77.3084 44.2733C77.3084 44.2342 77.0857 44.2225 77.0505 44.2029C77.0232 44.1873 76.9334 44.1951 76.9607 44.1717C76.9607 44.1678 77.5349 44.3436 77.6169 44.3436" fill="black"/>
<path d="M76.6951 44.3826C76.8044 44.3826 76.9099 44.3983 77.0193 44.3905C77.1248 44.3826 77.1365 44.3787 77.1365 44.3826C77.1365 44.3983 77.2459 44.41 77.2459 44.4061C77.2459 44.3944 76.9529 44.2811 76.9685 44.2654C76.9919 44.2264 77.1951 44.2615 77.2302 44.2654C77.2341 44.2654 77.3084 44.2772 77.3084 44.2733C77.3084 44.2342 77.0857 44.2225 77.0505 44.2029C77.0232 44.1873 76.9334 44.1951 76.9607 44.1717C76.9607 44.1678 77.5349 44.3436 77.6169 44.3436" stroke="black" stroke-width="0.462456" stroke-miterlimit="10" stroke-linecap="round" stroke-linejoin="round"/>
</g>
<g id="Vector_15">
<path d="M76.3552 44.7069C76.7576 44.6053 77.2224 44.5858 77.6208 44.6874C77.7497 44.7186 77.8474 44.867 77.9607 44.9374C78.2576 45.117 78.7185 45.3202 79.0466 45.4139C79.3591 45.5038 79.6755 45.5741 79.9998 45.5741C80.1326 45.5741 80.2771 45.535 80.406 45.5038C80.4373 45.4998 80.5193 45.5038 80.4998 45.4842C80.4607 45.4452 79.4763 45.4139 79.3435 45.3905C79.0076 45.3319 78.7341 45.1483 78.4138 45.0741C77.9607 44.9686 77.1326 44.9686 76.7849 44.617C76.7537 44.5897 76.6286 44.285 76.6911 44.2538C76.7224 44.2381 77.8513 44.7655 77.9607 44.8202C78.0623 44.8709 78.2146 44.867 78.324 44.8905C78.574 44.9413 78.8201 45.078 79.0701 45.1405C79.5857 45.2694 80.1912 45.2772 80.7263 45.2772" fill="black"/>
<path d="M76.3552 44.7069C76.7576 44.6053 77.2224 44.5858 77.6208 44.6874C77.7497 44.7186 77.8474 44.867 77.9607 44.9374C78.2576 45.117 78.7185 45.3202 79.0466 45.4139C79.3591 45.5038 79.6755 45.5741 79.9998 45.5741C80.1326 45.5741 80.2771 45.535 80.406 45.5038C80.4373 45.4998 80.5193 45.5038 80.4998 45.4842C80.4607 45.4452 79.4763 45.4139 79.3435 45.3905C79.0076 45.3319 78.7341 45.1483 78.4138 45.0741C77.9607 44.9686 77.1326 44.9686 76.7849 44.617C76.7537 44.5897 76.6286 44.285 76.6911 44.2538C76.7224 44.2381 77.8513 44.7655 77.9607 44.8202C78.0623 44.8709 78.2146 44.867 78.324 44.8905C78.574 44.9413 78.8201 45.078 79.0701 45.1405C79.5857 45.2694 80.1912 45.2772 80.7263 45.2772" stroke="black" stroke-width="0.462456" stroke-miterlimit="10" stroke-linecap="round" stroke-linejoin="round"/>
</g>
<g id="Vector_16">
<path d="M79.7497 45.4373C80.1052 45.2576 80.5466 45.2615 80.9294 45.1639C81.4451 45.0311 81.9646 44.8826 82.4685 44.7069C82.7849 44.5975 82.9724 44.3436 83.2615 44.1834C83.9919 43.7811 84.7693 43.2655 85.6599 43.4803C85.781 43.5076 85.9177 43.6326 86.0232 43.6834C86.2575 43.7967 86.5466 43.8123 86.7693 43.9334C87.6091 44.3826 88.031 45.6444 88.1755 46.5076C88.2536 46.9725 88.1052 47.3944 88.0622 47.8514C88.0466 48.0233 88.0857 48.3162 88.0388 48.4881C87.7537 49.5662 86.863 50.3826 86.0466 51.0389C85.8161 51.2225 85.656 51.4803 85.4333 51.6756C84.6677 52.3436 83.7927 52.7811 82.8083 53.0193C81.4763 53.3436 79.8982 52.8475 78.7068 52.2889C78.1248 52.0154 77.4255 51.8748 76.8982 51.492C75.699 50.6326 74.5779 49.6326 73.6326 48.4881C73.4021 48.2069 73.1287 47.9451 72.9568 47.6209C72.3826 46.5506 72.0232 44.6522 73.1169 43.7733C73.5935 43.3905 74.4646 43.4686 75.0154 43.5936C75.5115 43.7029 76.2537 43.91 76.7146 44.0936C76.9919 44.2029 77.1326 44.535 77.3708 44.7069C77.8786 45.074 78.4997 45.5584 79.0935 45.7537C79.7849 45.9881 80.2068 45.5506 80.8591 45.5506" fill="black"/>
<path d="M79.7497 45.4373C80.1052 45.2576 80.5466 45.2615 80.9294 45.1639C81.4451 45.0311 81.9646 44.8826 82.4685 44.7069C82.7849 44.5975 82.9724 44.3436 83.2615 44.1834C83.9919 43.7811 84.7693 43.2655 85.6599 43.4803C85.781 43.5076 85.9177 43.6326 86.0232 43.6834C86.2575 43.7967 86.5466 43.8123 86.7693 43.9334C87.6091 44.3826 88.031 45.6444 88.1755 46.5076C88.2536 46.9725 88.1052 47.3944 88.0622 47.8514C88.0466 48.0233 88.0857 48.3162 88.0388 48.4881C87.7537 49.5662 86.863 50.3826 86.0466 51.0389C85.8161 51.2225 85.656 51.4803 85.4333 51.6756C84.6677 52.3436 83.7927 52.7811 82.8083 53.0193C81.4763 53.3436 79.8982 52.8475 78.7068 52.2889C78.1248 52.0154 77.4255 51.8748 76.8982 51.492C75.699 50.6326 74.5779 49.6326 73.6326 48.4881C73.4021 48.2069 73.1287 47.9451 72.9568 47.6209C72.3826 46.5506 72.0232 44.6522 73.1169 43.7733C73.5935 43.3905 74.4646 43.4686 75.0154 43.5936C75.5115 43.7029 76.2537 43.91 76.7146 44.0936C76.9919 44.2029 77.1326 44.535 77.3708 44.7069C77.8786 45.074 78.4997 45.5584 79.0935 45.7537C79.7849 45.9881 80.2068 45.5506 80.8591 45.5506" stroke="black" stroke-width="0.462456" stroke-miterlimit="10" stroke-linecap="round" stroke-linejoin="round"/>
</g>
</g>
</g>
<g id="Ojos">
<g id="Ojo Izquierdo">
<path id="circuloNegro" d="M47.9219 36.082C47.9219 32.4336 50.6602 29.4766 54.0391 29.4766C57.418 29.4766 60.1562 32.4336 60.1562 36.082C60.1562 39.7305 57.418 42.6875 54.0391 42.6875C50.6602 42.6875 47.9219 39.7305 47.9219 36.082Z" fill="black"/>
<path id="circuloBlanco" d="M53.9492 33.9258C53.9492 33 54.7227 32.25 55.6836 32.25C56.6406 32.25 57.418 33 57.418 33.9258C57.418 34.8477 56.6406 35.5977 55.6836 35.5977C54.7227 35.5977 53.9492 34.8477 53.9492 33.9258Z" fill="white"/>
</g>
<g id="Ojo Derecho">
<path id="Vector_17" d="M100.266 36.082C100.266 32.4336 103.004 29.4766 106.383 29.4766C109.762 29.4766 112.5 32.4336 112.5 36.082C112.5 39.7305 109.762 42.6875 106.383 42.6875C103.004 42.6875 100.266 39.7305 100.266 36.082Z" fill="black"/>
<path id="Vector_18" d="M102.293 33.2617C102.293 32.3398 103.07 31.5898 104.027 31.5898C104.984 31.5898 105.762 32.3398 105.762 33.2617C105.762 34.1875 104.984 34.9375 104.027 34.9375C103.07 34.9375 102.293 34.1875 102.293 33.2617Z" fill="white"/>
</g>
</g>
<g id="Brazo Derecho">
<path id="brazoDeracho_Completo" d="M123 63H152V103.5C152 111.508 145.508 118 137.5 118V118C129.492 118 123 111.508 123 103.5V63Z" fill="#BE7D54"/>
<rect id="detalleCentro" x="136" y="105" width="3" height="13" rx="0.3" fill="#996443"/>
<path id="detalleIzquierda" d="M128 108.3C128 108.134 128.134 108 128.3 108H130.7C130.866 108 131 108.134 131 108.3V115.83C131 115.924 130.924 116 130.83 116V116C129.267 116 128 114.733 128 113.17V108.3Z" fill="#996443"/>
<path id="detalleDerecha" d="M144 108.3C144 108.134 144.134 108 144.3 108H146.7C146.866 108 147 108.134 147 108.3V113.17C147 114.733 145.733 116 144.17 116V116C144.076 116 144 115.924 144 115.83V108.3Z" fill="#996443"/>
</g>
<g id="Brazo Izquierdo">
<path id="brazoIzquierdo_Completo" d="M2 63H31V103.5C31 111.508 24.5081 118 16.5 118V118C8.49187 118 2 111.508 2 103.5V63Z" fill="#BE7D54"/>
<rect id="detalleCentro_2" x="15" y="105" width="3" height="13" rx="0.3" fill="#996443"/>
<path id="detalleIzquierda_2" d="M7 108.3C7 108.134 7.13431 108 7.3 108H9.7C9.86569 108 10 108.134 10 108.3V115.83C10 115.924 9.92397 116 9.83019 116V116C8.26712 116 7 114.733 7 113.17V108.3Z" fill="#996443"/>
<path id="detalleDerecha_2" d="M23 108.3C23 108.134 23.1343 108 23.3 108H25.7C25.8657 108 26 108.134 26 108.3V113.17C26 114.733 24.7329 116 23.1698 116V116C23.076 116 23 115.924 23 115.83V108.3Z" fill="#996443"/>
</g>
</g>
</g>
<defs>
<clipPath id="clip0_57_93">
<rect width="152" height="118" fill="white"/>
</clipPath>
</defs>
</svg>
