<svg width="99" height="200" viewBox="0 0 99 200" fill="none" xmlns="http://www.w3.org/2000/svg">
<g id="Oso 2" clip-path="url(#clip0_75_20)">
<g id="surface1">
<g id="Oreja Izquierda">
<path id="Vector" d="M8.47207 12.1883C12.6659 3.7186 21.5026 0.218289 28.2162 4.37547C34.9246 8.52764 36.9676 18.7602 32.7738 27.23C28.58 35.6997 19.7433 39.2 13.0348 35.0428C6.32125 30.8907 4.28327 20.653 8.47207 12.1883Z" fill="#996443" stroke="#996443" stroke-width="3.24078" stroke-miterlimit="10" stroke-linejoin="round"/>
<path id="Vector_2" d="M14.0913 16.6006C15.8122 12.0656 20.1358 9.78354 23.7451 11.4994C27.3494 13.2153 28.8809 18.2826 27.1549 22.8177C25.4289 27.3528 21.1103 29.6348 17.501 27.9189C13.8967 26.1979 12.3703 21.1357 14.0913 16.6006Z" fill="#EF999A" stroke="#EF999A" stroke-width="3.24078" stroke-miterlimit="10" stroke-linejoin="round"/>
</g>
<g id="Oreja Derecha">
<path id="Vector_3" d="M67.0586 81.4072C72.8247 73.7996 82.9855 71.7739 89.7512 76.8747C96.5119 81.9805 97.3227 92.2824 91.5515 99.8851C85.7854 107.493 75.6246 109.518 68.8639 104.412C62.0982 99.3117 61.2874 89.0098 67.0586 81.4072Z" fill="#996443" stroke="#996443" stroke-width="3.24078" stroke-miterlimit="10" stroke-linejoin="round"/>
<path id="Vector_4" d="M74.8275 84.7695C78.908 81.6765 84.2238 81.8002 86.6972 85.0486C89.1654 88.292 87.8631 93.4299 83.7827 96.5229C79.7022 99.6159 74.3864 99.4921 71.9181 96.2436C69.4448 93.0003 70.7471 87.8625 74.8275 84.7695Z" fill="#EF999A" stroke="#EF999A" stroke-width="3.24078" stroke-miterlimit="10" stroke-linejoin="round"/>
</g>
<path id="Cuerpo" d="M2.37558 198.84L2.14835 26.6246C2.14835 26.6246 78.7238 27.9638 73.8642 93.5191C69.0046 159.074 2.37558 198.84 2.37558 198.84Z" fill="#BE7D54" stroke="#996443" stroke-width="1.30351" stroke-miterlimit="10" stroke-linejoin="round"/>
<g id="Ojo Izquierdo">
<path id="Vector_5" d="M17.7084 46.4833C18.9891 44.6873 21.035 43.956 22.2842 44.8406C23.5333 45.7252 23.5083 47.8959 22.2277 49.692C20.947 51.4829 18.901 52.2193 17.6519 51.3296C16.4028 50.445 16.4328 48.2743 17.7084 46.4833Z" fill="black" stroke="black" stroke-width="3.24078" stroke-miterlimit="10" stroke-linejoin="round"/>
<path id="Vector_6" d="M20.0901 46.0525C19.7201 45.8886 19.3969 45.9161 19.1359 46.1552C18.4834 46.7555 18.2546 47.9837 18.1697 48.8324C18.1559 49.0142 18.4406 49.9763 18.6681 49.9999C18.7287 50.0045 18.6068 49.9095 18.5761 49.8592C18.5404 49.7989 18.5146 49.7284 18.4889 49.663C18.3758 49.3963 18.2773 49.0487 18.2601 48.7611C18.2093 47.9992 18.5513 47.068 18.9966 46.4641C19.1817 46.2104 19.4009 45.7646 19.7804 45.8478C19.8866 45.8672 20.1036 45.8253 20.0943 45.9313C20.0847 46.0071 19.3678 46.0829 19.2973 46.1187C18.9348 46.2879 18.5653 46.9013 18.4619 47.2857C18.3437 47.7206 18.3417 48.1547 18.3852 48.5885C18.4017 48.7752 18.5539 49.5717 18.6006 49.7379C18.6212 49.7983 18.5267 49.3043 18.5313 49.2387C18.6115 48.4304 18.7926 47.6114 19.2778 46.9265C19.4428 46.6931 19.5876 46.4498 19.7933 46.2464C19.8585 46.1804 20.2173 46.1879 20.1607 46.047C20.1143 45.9161 19.8875 45.9883 19.8375 46.0644" stroke="white" stroke-width="1.82746" stroke-miterlimit="10" stroke-linecap="round" stroke-linejoin="round"/>
</g>
<g id="Ojo Derecha">
<path id="Vector_7" d="M53.6454 74.3093C54.9666 72.5483 57.0332 71.8623 58.2623 72.7773C59.4864 73.6924 59.4108 75.8635 58.0895 77.6245C56.7683 79.3854 54.7068 80.0714 53.4777 79.1614C52.2536 78.2464 52.3291 76.0702 53.6454 74.3093Z" fill="black" stroke="black" stroke-width="3.24078" stroke-miterlimit="10" stroke-linejoin="round"/>
<path id="Vector_8" d="M53.8375 77.8818C53.3531 77.2543 53.4795 76.5568 53.6965 75.8132C54.0664 74.5436 54.954 73.6085 56.1731 73.1152" stroke="white" stroke-width="1.6905" stroke-miterlimit="10" stroke-linecap="round" stroke-linejoin="round"/>
</g>
<g id="Mano">
<path id="Vector_9" d="M33.0159 113.263C33.0159 113.263 8.00306 135.404 20.0307 143.708C32.0583 152.012 50.0534 127.705 50.0534 127.705" stroke="#996443" stroke-width="3.49072" stroke-miterlimit="10" stroke-linejoin="round"/>
<path id="Vector_10" d="M18.4373 139.187C18.4273 139.207 18.8052 138.351 18.8648 138.204C19.0883 137.663 19.2827 137.288 19.5974 136.781C20.5663 135.209 21.9063 133.942 23.4808 132.987C23.7676 132.814 24.2491 132.326 24.5977 132.323" stroke="#996443" stroke-width="1.86254" stroke-miterlimit="10" stroke-linecap="round" stroke-linejoin="round"/>
<path id="Vector_11" d="M27.3594 143.439C27.3555 142.894 27.926 142.113 28.1655 141.687C28.8242 140.536 29.6708 139.526 30.665 138.666C31.0968 138.289 31.5182 137.867 32.1346 137.863" stroke="#996443" stroke-width="1.86254" stroke-miterlimit="10" stroke-linecap="round" stroke-linejoin="round"/>
<path id="Vector_12" d="M21.9068 142.549C21.7496 142.474 21.929 142.13 21.9589 142.059C22.237 141.381 22.5607 140.727 22.9555 140.114C23.9 138.653 24.9964 137.242 26.4037 136.212C26.6952 135.998 26.9861 135.698 27.3595 135.635" stroke="#996443" stroke-width="1.86254" stroke-miterlimit="10" stroke-linecap="round" stroke-linejoin="round"/>
</g>
<g id="Boca">
<path id="Vector_13" d="M9.88739 77.0429C13.9539 69.1495 22.2527 65.3148 28.4338 68.4814C34.6098 71.6429 36.3205 80.6108 32.254 88.5042C28.1874 96.3976 19.8836 100.232 13.7126 97.0657C7.5365 93.8991 5.82083 84.9363 9.88739 77.0429Z" fill="#FFCC80" stroke="#FFCC80" stroke-width="1.86254" stroke-miterlimit="10" stroke-linejoin="round"/>
<g id="Nariz">
<g id="Vector_14">
<path d="M23.263 78.0837C23.263 78.0837 23.2784 78.1189 23.268 78.0786C23.0873 77.5347 21.6664 73.0825 22.5057 73.1775C23.4007 73.2772 26.9237 75.6448 27.4979 76.1102C28.0213 76.5406 33.0533 80.8006 30.7076 81.3069C28.367 81.8131 23.3589 78.7847 23.2577 78.0534" fill="black"/>
<path d="M23.263 78.0837C23.263 78.0837 23.2784 78.1189 23.268 78.0786C23.0873 77.5347 21.6664 73.0825 22.5057 73.1775C23.4007 73.2772 26.9237 75.6448 27.4979 76.1102C28.0213 76.5406 33.0533 80.8006 30.7076 81.3069C28.367 81.8131 23.3589 78.7847 23.2577 78.0534" stroke="black" stroke-width="0.634903" stroke-miterlimit="10" stroke-linejoin="round"/>
</g>
<path id="Vector_15" d="M24.773 77.2805L17.0007 86.9669" stroke="black" stroke-width="1.6905" stroke-miterlimit="10" stroke-linejoin="round"/>
<path id="Vector_16" d="M21.7183 89.6693C21.7183 89.6693 14.0653 90.5363 17.2659 86.6268" stroke="black" stroke-width="1.6905" stroke-miterlimit="10" stroke-linejoin="round"/>
<path id="Vector_17" d="M11.6729 84.4556C11.6729 84.4556 14.8046 90.7785 17.8067 85.9415" stroke="black" stroke-width="1.6905" stroke-miterlimit="10" stroke-linejoin="round"/>
</g>
</g>
</g>
</g>
<defs>
<clipPath id="clip0_75_20">
<rect width="97" height="199" fill="white" transform="translate(0 0.688599) rotate(-0.406735)"/>
</clipPath>
</defs>
</svg>
