<svg width="332" height="233" viewBox="0 0 332 233" fill="none" xmlns="http://www.w3.org/2000/svg">
<g id="Recharge" clip-path="url(#clip0_45_331)">
<path id="Vector" d="M332 219.979H0V220.99H332V219.979Z" fill="#3F3D56"/>
<g id="Group">
<path id="Vector_2" d="M238.863 106.845C235.79 88.4136 219.769 74.3677 200.469 74.3677H121.539C102.246 74.3677 86.2292 88.4024 83.1443 106.823C82.7882 108.93 82.6045 111.096 82.6045 113.304V182.079C82.6045 184.287 82.7882 186.45 83.1443 188.557C85.5995 203.232 96.2674 215.126 110.264 219.351C113.832 220.431 117.618 221.012 121.539 221.012H200.469C204.389 221.012 208.175 220.431 211.744 219.351C225.744 215.123 236.416 203.221 238.863 188.534C239.216 186.435 239.399 184.279 239.399 182.079V113.304C239.399 111.104 239.216 108.944 238.863 106.845ZM207.148 219.351C204.978 219.737 202.748 219.94 200.469 219.94H121.539C119.26 219.94 117.03 219.737 114.859 219.351C97.137 216.199 83.6803 200.709 83.6803 182.079V159.25C83.6803 94.7449 135.966 75.4436 200.469 75.4436C221.377 75.4436 238.327 92.3946 238.327 113.304V182.079C187.57 188.871 224.871 216.199 207.148 219.351Z" fill="#3F3D56"/>
<path id="Vector_3" d="M176.71 126.266L179.747 146.005L224.283 139.932L219.981 116.869L176.71 126.266Z" fill="#FF8C42"/>
<path id="Vector_4" d="M211.663 15.5045H193.249V34.5657H211.663V15.5045Z" fill="#2F2E41"/>
<path id="Vector_5" d="M194.93 35.6706L199.484 22.0052H208.363L208.829 35.6706H194.93Z" fill="#FFE7C9"/>
<path id="Vector_6" opacity="0.1" d="M194.93 35.6706L199.484 22.0052H208.363L208.829 35.6706H194.93Z" fill="black"/>
<path id="Vector_7" d="M199.737 157.393L199.231 210.03L198.725 214.079V219.891L206.317 220.658L206.823 209.018C206.823 209.018 214.92 186.242 212.896 168.528C210.872 150.813 211.884 155.875 211.884 155.875L199.737 157.393Z" fill="#FFE7C9"/>
<path id="Vector_8" d="M204.557 161.527L185.881 210.741L184.879 214.697L182.765 220.111L175.415 218.064L179.178 207.036C179.178 207.036 179.92 182.876 188.249 167.111C196.579 151.347 193.795 155.693 193.795 155.693L204.557 161.527Z" fill="#FFE7C9"/>
<path id="Vector_9" d="M194.93 34.1522L181.265 40.2257L189.99 85.2767L188.611 149.937L179.502 169.169C179.502 169.169 177.975 180.169 193.664 173.083C209.353 165.997 227.067 163.973 227.067 163.973L222.765 134.364L218.969 56.6746L219.475 39.4665L208.341 32.3808C208.341 32.3808 194.93 34.1522 194.93 34.1522Z" fill="#2F2E41"/>
<path id="Vector_10" d="M187.319 169.872L172.155 144.487L189.484 85.2767L181.265 40.2257L195.684 34.0526C195.684 34.0526 203.148 41.3217 203.148 47.3175C203.148 53.3133 187.319 169.872 187.319 169.872Z" fill="#E6E6E6"/>
<path id="Vector_11" d="M220.215 164.811L206.451 46.5667C206.277 45.0736 206.532 43.562 207.186 42.2084L211.125 34.0526L226.561 38.4542L220.356 86.7951L236.936 134.364L220.215 164.811Z" fill="#E6E6E6"/>
<path id="Vector_12" d="M207.835 219.646C207.835 219.646 198.219 214.079 197.207 217.115C196.195 220.152 195.689 222.683 195.689 222.683C195.689 222.683 193.158 232.299 200.75 232.299C208.341 232.299 207.835 227.925 207.835 227.925V219.646Z" fill="#2F2E41"/>
<path id="Vector_13" d="M174.369 216.569C174.369 216.569 185.351 214.881 185.189 218.078C185.027 221.275 184.578 223.816 184.578 223.816C184.578 223.816 183.437 233.694 176.366 230.932C169.295 228.171 171.357 224.281 171.357 224.281L174.369 216.569Z" fill="#2F2E41"/>
<path id="Vector_14" d="M204.516 29.4427C211.464 29.4427 217.097 23.8095 217.097 16.8605C217.097 9.91158 211.464 4.27835 204.516 4.27835C197.567 4.27835 191.934 9.91158 191.934 16.8605C191.934 23.8095 197.567 29.4427 204.516 29.4427Z" fill="#FFE7C9"/>
<path id="Vector_15" d="M214.568 5.64798C213.982 2.54577 210.798 0.447502 207.652 0.184384C204.506 -0.0787336 201.424 1.1092 198.591 2.50203C196.671 3.44619 194.78 4.51038 193.225 5.98001C191.669 7.44964 190.461 9.36947 190.182 11.4912C190.083 12.2419 190.096 13.0263 189.789 13.7183C189.405 14.5827 188.581 15.1698 188.084 15.9744C187.192 17.4173 187.601 19.5165 188.97 20.5181C187.25 21.2515 185.481 22.0166 184.17 23.3502C182.858 24.6838 182.1 26.7427 182.82 28.4694C183.075 29.0803 183.496 29.615 183.713 30.24C184.127 31.4269 183.733 32.7752 183 33.796C182.267 34.8167 181.232 35.5736 180.216 36.3125C182.828 36.8246 185.495 37.2236 188.146 36.9847C190.798 36.7458 193.459 35.8166 195.379 33.9724C197.299 32.1282 198.355 29.2835 197.666 26.7119C197.139 24.7419 195.663 23.0157 195.664 20.9762C195.664 19.4085 196.546 17.9944 197.397 16.6779C199.256 13.8028 201.115 10.9277 202.973 8.05255C203.308 7.53537 203.66 7.00019 204.189 6.68386C205.088 6.14572 206.253 6.38238 207.201 6.82903C208.149 7.2757 209.015 7.91653 210.025 8.19347C212.087 8.75869 214.479 7.46065 215.129 5.42365" fill="#2F2E41"/>
<path id="Vector_16" d="M207.135 31.2363C206.087 32.2516 204.576 32.5787 203.176 32.9901C201.776 33.4015 200.286 34.0486 199.656 35.365C199.038 36.6559 199.487 38.2944 200.51 39.2951C201.533 40.2958 203.019 40.7173 204.45 40.6975C205.881 40.6776 207.275 40.2582 208.621 39.7712C212.301 38.4397 215.786 36.5718 218.932 34.2448C216.894 33.681 215.561 31.3012 216.144 29.2686C216.619 27.6152 218.07 26.462 219.057 25.0536C220.757 22.6285 221.041 19.4318 220.478 16.524C219.915 13.6162 218.589 10.9208 217.277 8.26532C216.863 7.4259 216.438 6.57228 215.791 5.89543C215.144 5.21859 214.229 4.73368 213.297 4.83065C211.752 4.99158 210.765 6.68807 210.755 8.24177C210.744 9.79547 211.426 11.2557 211.943 12.7209C212.475 14.2304 212.846 15.8306 212.703 17.4249C212.583 18.761 212.097 20.0625 211.312 21.1501C210.706 21.9901 209.933 22.6949 209.274 23.494C208.764 24.1117 208.312 24.8114 208.178 25.6011C207.934 27.038 208.777 28.492 208.546 29.931C208.302 31.4522 206.701 32.6169 205.179 32.3811" fill="#2F2E41"/>
<g id="recargar">
<path id="Vector_17" d="M168.656 206.972C192.415 206.972 211.675 187.711 211.675 163.951C211.675 140.192 192.415 120.931 168.656 120.931C144.898 120.931 125.638 140.192 125.638 163.951C125.638 187.711 144.898 206.972 168.656 206.972Z" fill="#FF8C42"/>
<g id="flechas">
<path id="flecha2" d="M194.432 160.499H189.084C188.252 155.596 185.685 151.156 181.851 147.989C173.027 140.701 159.966 141.946 152.679 150.77C152.654 150.798 152.63 150.827 152.607 150.856C152.025 151.611 152.165 152.695 152.919 153.278C153.674 153.86 154.758 153.72 155.34 152.965C158.506 149.13 163.298 146.689 168.656 146.689C176.859 146.69 183.93 152.462 185.573 160.499H180.857C180.655 160.499 180.46 160.57 180.305 160.699C179.939 161.004 179.889 161.548 180.194 161.914L186.981 170.062C187.015 170.102 187.052 170.139 187.092 170.172C187.458 170.478 188.002 170.429 188.307 170.062L195.095 161.914C195.224 161.759 195.294 161.564 195.295 161.362C195.295 160.886 194.908 160.499 194.432 160.499Z" fill="white"/>
<path id="flecha1" d="M184.393 174.625C183.638 174.043 182.554 174.183 181.972 174.937C179.461 177.978 175.985 180.068 172.121 180.859C162.778 182.772 153.653 176.748 151.74 167.404H156.456C156.932 167.404 157.318 167.017 157.318 166.54C157.318 166.339 157.247 166.143 157.118 165.988L150.331 157.84C150.026 157.474 149.481 157.425 149.115 157.73C149.075 157.764 149.039 157.8 149.005 157.84L142.218 165.988C141.913 166.355 141.962 166.899 142.329 167.204C142.484 167.333 142.679 167.404 142.881 167.404H148.228C149.061 172.307 151.628 176.747 155.462 179.914C164.285 187.202 177.346 185.957 184.634 177.133C184.659 177.105 184.683 177.076 184.705 177.046C185.288 176.292 185.148 175.208 184.393 174.625Z" fill="white"/>
</g>
</g>
<path id="uuid-da16df1e-5659-4232-96f6-61e8c639a9ec-130" d="M180.667 120.197C180.146 123.925 177.801 126.678 175.428 126.346C173.056 126.014 171.555 122.723 172.077 118.994C172.265 117.501 172.808 116.075 173.66 114.835L176.066 99.0665L183.442 100.354L180.286 115.762C180.765 117.189 180.896 118.709 180.667 120.197Z" fill="#FFE7C9"/>
<path id="Vector_18" d="M187.085 39.4665C187.085 39.4665 179.494 36.9358 178.481 46.0461C177.469 55.1563 176.457 66.2909 176.457 66.2909C176.457 66.2909 171.902 76.9195 173.927 82.4869C175.951 88.0542 179.494 84.1726 175.951 88.8971C172.408 93.6216 172.902 109.166 172.902 109.166L184.302 108.592C184.302 108.592 190.628 66.7971 190.628 65.7848C190.628 64.7726 187.085 39.4665 187.085 39.4665Z" fill="#E6E6E6"/>
<g id="Group_2">
<path id="uuid-6bf35aa9-e432-4b51-af77-8f4eb19e6e42-131" d="M236.429 118.504C236.57 122.266 234.744 125.388 232.35 125.478C229.956 125.567 227.902 122.59 227.761 118.827C227.684 117.325 227.968 115.826 228.589 114.455L228.193 98.5091L235.68 98.4825L235.276 114.206C235.998 115.526 236.394 117 236.429 118.504Z" fill="#FFE7C9"/>
<path id="Vector_19" d="M224.743 39.2956C224.743 39.2956 232.378 36.901 233.227 46.0278C234.077 55.1547 234.89 71.873 234.89 71.873C234.89 71.873 239.254 82.5813 237.13 88.1116C235.007 93.6418 231.534 89.6976 234.992 94.4846C238.45 99.2716 237.209 112.771 237.209 112.771L225.821 111.994C225.821 111.994 220.712 72.1259 220.73 71.1138C220.748 70.1017 224.743 39.2956 224.743 39.2956Z" fill="#E6E6E6"/>
</g>
</g>
</g>
<defs>
<clipPath id="clip0_45_331">
<rect width="332" height="232.152" fill="white" transform="translate(0 0.147614)"/>
</clipPath>
</defs>
</svg>
